<?xml version="1.0" encoding="UTF-8"?>
<svg width="148px" height="16px" viewBox="0 0 148 16" version="1.1" xmlns="http://www.w3.org/2000/svg" xmlns:xlink="http://www.w3.org/1999/xlink">
    <!-- Generator: Sketch 54.1 (76490) - https://sketchapp.com -->
    <title>Chubb_Logo_Black</title>
    <desc>Created with Sketch.</desc>
    <g id="Redesign" stroke="none" stroke-width="1" fill="none" fill-rule="evenodd">
        <g id="Home-Monitor:-Warning---WV-ON" transform="translate(-114.000000, -24.000000)" fill="#4B4E52">
            <g id="Masterhead-/-BG">
                <g id="Logo-/-Chubb-/-Black" transform="translate(114.000000, 24.000000)">
                    <g id="Chubb-logo">
                        <path d="M20.3121432,3.19652727 L20.3121432,0.556890909 L3.81092211,0.556890909 C1.27778526,0.556890909 0.000311578947,1.84425455 0.000311578947,3.93525455 L0.000311578947,11.9623455 C0.000311578947,14.0533455 1.27778526,15.3407091 3.81092211,15.3407091 L20.3121432,15.3407091 L20.3121432,12.7010727 L2.87462737,12.7010727 L2.87462737,3.19652727 L20.3121432,3.19652727 Z M31.3202274,6.59652727 L31.3202274,0.556890909 L28.5097853,0.556890909 L28.5097853,15.3407091 L31.3202274,15.3407091 L31.3202274,9.19443636 L46.3305432,9.19443636 L46.3305432,15.3407091 L49.1409853,15.3407091 L49.1409853,0.556890909 L46.3305432,0.556890909 L46.3305432,6.59652727 L31.3202274,6.59652727 Z M76.4368589,0.556890909 L76.4368589,12.7010727 L61.6399747,12.7010727 L61.6399747,0.556890909 L58.8295326,0.556890909 L58.8295326,11.9623455 C58.8295326,14.0533455 60.1070063,15.3407091 62.6401432,15.3407091 L75.4366905,15.3407091 C77.9698274,15.3407091 79.2473011,14.0533455 79.2473011,11.9623455 L79.2473011,0.556890909 L76.4368589,0.556890909 Z M106.222248,15.3407091 C108.990627,15.3407091 110.268101,14.2001636 110.268101,12.2358909 L110.268101,10.5049818 C110.268101,9.9548 110.07648,9.70134545 109.672985,9.36443636 L107.882964,7.84370909 L109.672985,6.32298182 C110.07648,5.98452727 110.268101,5.73107273 110.268101,5.18243636 L110.268101,3.66170909 C110.268101,1.69743636 108.990627,0.556890909 106.222248,0.556890909 L88.9342905,0.556890909 L88.9342905,15.3407091 L106.222248,15.3407091 Z M91.7447326,6.65989091 L107.393785,6.65989091 L107.393785,3.0698 L91.7447326,3.0698 L91.7447326,6.65989091 Z M91.7447326,12.8278 L107.393785,12.8278 L107.393785,9.13107273 L91.7447326,9.13107273 L91.7447326,12.8278 Z M136.456312,15.3407091 C139.224691,15.3407091 140.502164,14.2001636 140.502164,12.2358909 L140.502164,10.5049818 C140.502164,9.9548 140.310543,9.70134545 139.907048,9.36443636 L138.117027,7.84370909 L139.907048,6.32298182 C140.310543,5.98452727 140.502164,5.73107273 140.502164,5.18243636 L140.502164,3.66170909 C140.502164,1.69743636 139.224691,0.556890909 136.456312,0.556890909 L119.168354,0.556890909 L119.168354,15.3407091 L136.456312,15.3407091 Z M121.978796,6.65989091 L137.627848,6.65989091 L137.627848,3.0698 L121.978796,3.0698 L121.978796,6.65989091 Z M121.978796,12.8278 L137.627848,12.8278 L137.627848,9.13107273 L121.978796,9.13107273 L121.978796,12.8278 Z" id="Chubb"></path>
                        <path d="M145.643061,2.43894545 C145.728745,2.43276364 145.803524,2.41730909 145.868956,2.39258182 C145.935945,2.36785455 145.987356,2.32612727 146.027861,2.27049091 C146.068366,2.21485455 146.088619,2.13758182 146.088619,2.04021818 C146.088619,1.95830909 146.07304,1.89030909 146.041882,1.84085455 C146.010724,1.78985455 145.968661,1.74967273 145.915693,1.71876364 C145.862724,1.68785455 145.803524,1.66621818 145.738093,1.6554 C145.672661,1.64458182 145.604114,1.63994545 145.530893,1.63994545 L145.001208,1.63994545 L145.001208,2.44667273 L145.382893,2.44667273 C145.470135,2.44667273 145.557377,2.44358182 145.643061,2.43894545 L145.643061,2.43894545 Z M144.71144,3.72630909 L144.71144,1.39576364 L145.613461,1.39576364 C145.878303,1.39576364 146.07304,1.4514 146.194556,1.56112727 C146.316072,1.67085455 146.376829,1.83158182 146.376829,2.04021818 C146.376829,2.14221818 146.361251,2.23030909 146.331651,2.30603636 C146.300493,2.38176364 146.256872,2.44667273 146.202345,2.49767273 C146.147819,2.55021818 146.085503,2.59194545 146.01384,2.62285455 C145.943735,2.65376364 145.867398,2.67694545 145.787945,2.69085455 L146.485882,3.72630909 L146.147819,3.72630909 L145.487272,2.69085455 L145.001208,2.69085455 L145.001208,3.72630909 L144.71144,3.72630909 Z M144.762851,0.967672727 C144.554093,1.05885455 144.373377,1.18094545 144.220703,1.33703636 C144.068029,1.49158182 143.948072,1.67394545 143.862387,1.88412727 C143.776703,2.09276364 143.73464,2.3184 143.73464,2.56103636 C143.73464,2.80212727 143.776703,3.02930909 143.862387,3.23794545 C143.948072,3.44812727 144.068029,3.63049091 144.220703,3.78503636 C144.373377,3.94112727 144.554093,4.06321818 144.762851,4.15285455 C144.973166,4.24403636 145.202177,4.28885455 145.448324,4.28885455 C145.692914,4.28885455 145.918808,4.24403636 146.129124,4.15285455 C146.337882,4.06321818 146.520156,3.94112727 146.672829,3.78503636 C146.825503,3.63049091 146.945461,3.44812727 147.032703,3.23794545 C147.119945,3.02930909 147.163566,2.80212727 147.163566,2.56103636 C147.163566,2.3184 147.119945,2.09276364 147.032703,1.88412727 C146.945461,1.67394545 146.825503,1.49158182 146.672829,1.33703636 C146.520156,1.18094545 146.337882,1.05885455 146.129124,0.967672727 C145.918808,0.878036364 145.692914,0.833218182 145.448324,0.833218182 C145.202177,0.833218182 144.973166,0.878036364 144.762851,0.967672727 L144.762851,0.967672727 Z M146.252198,0.700309091 C146.499903,0.802309091 146.714893,0.946036364 146.895608,1.1284 C147.077882,1.31076364 147.221208,1.52403636 147.325587,1.76976364 C147.428408,2.01549091 147.481377,2.27821818 147.481377,2.56103636 C147.481377,2.8454 147.428408,3.11121818 147.325587,3.35385455 C147.221208,3.59803636 147.077882,3.80976364 146.895608,3.99058182 C146.714893,4.1714 146.499903,4.31358182 146.252198,4.41558182 C146.004493,4.51912727 145.736535,4.57012727 145.448324,4.57012727 C145.161672,4.57012727 144.893714,4.51912727 144.646008,4.41558182 C144.398303,4.31358182 144.183314,4.1714 144.00104,3.99058182 C143.820324,3.80976364 143.676998,3.59803636 143.572619,3.35385455 C143.469798,3.11121818 143.416829,2.8454 143.416829,2.56103636 C143.416829,2.27821818 143.469798,2.01549091 143.572619,1.76976364 C143.676998,1.52403636 143.820324,1.31076364 144.00104,1.1284 C144.183314,0.946036364 144.398303,0.802309091 144.646008,0.700309091 C144.893714,0.596763636 145.161672,0.545763636 145.448324,0.545763636 C145.736535,0.545763636 146.004493,0.596763636 146.252198,0.700309091 L146.252198,0.700309091 Z" id="Registration"></path>
                    </g>
                </g>
            </g>
        </g>
    </g>
</svg>