<?xml version="1.0" encoding="UTF-8"?>
<svg width="28px" height="24px" viewBox="0 0 28 24" version="1.1" xmlns="http://www.w3.org/2000/svg" xmlns:xlink="http://www.w3.org/1999/xlink">
    <!-- Generator: Sketch 54.1 (76490) - https://sketchapp.com -->
    <title>Group 11</title>
    <desc>Created with Sketch.</desc>
    <g id="Redesign" stroke="none" stroke-width="1" fill="none" fill-rule="evenodd">
        <g id="Home-Monitor:-Critical---Claim-#" transform="translate(-36.000000, -101.000000)" fill="#FF0000" fill-rule="nonzero" stroke="#6E27C5" stroke-width="0.5">
            <g id="Group-2" transform="translate(25.000000, 90.000000)">
                <g id="Group-11" transform="translate(11.000000, 11.000000)">
                    <g id="np_alert_954513_000000" transform="translate(0.912500, 0.250000)">
                        <path d="M13.25,0 C12.5972903,0 12.0092479,0.320609514 11.6742806,0.885615278 L0.253148611,20.0936986 L0.253148611,20.1052003 C-0.08327625,20.6673316 -0.0804017361,21.3574358 0.253148611,21.9224747 C0.589573472,22.4903844 1.18477083,22.8224809 1.84038819,22.8196101 L24.6598326,22.8196101 C25.3154132,22.8239233 25.9106326,22.4903733 26.2470722,21.9224747 C26.5806226,21.3574358 26.5834971,20.6673316 26.2470722,20.1052003 L26.2470722,20.0936986 L14.8259403,0.885615278 C14.4909508,0.320576389 13.9029306,0 13.2502208,0 L13.25,0 Z M13.25,1.47222222 C13.3621428,1.47222222 13.5145399,1.55417347 13.5605469,1.63324653 L13.5605469,1.64474826 L24.9816788,20.8528316 L24.9816788,20.8643333 C25.0291249,20.9434064 25.0291249,21.0958072 24.9816788,21.1748802 C24.9342328,21.2539533 24.7832748,21.3474062 24.6711319,21.3474062 L24.6596302,21.3474062 L1.84018576,21.3474062 L1.82868403,21.3474062 C1.71654118,21.3474062 1.56558319,21.2539533 1.51813715,21.1748802 C1.47069111,21.0958072 1.47069111,20.9434064 1.51813715,20.8643333 L1.51813715,20.8528316 L12.9392691,1.64474826 L12.9392691,1.63324653 C12.985276,1.55417347 13.1376731,1.47222222 13.249816,1.47222222 L13.25,1.47222222 Z M13.1694878,7.71775694 C12.789949,7.75945028 12.505258,8.0843734 12.5139073,8.46535139 L12.5139073,15.0903514 C12.511032,15.28732 12.5872313,15.4771042 12.7252522,15.6179958 C12.8647121,15.7574558 13.0530498,15.8365288 13.2500258,15.8365288 C13.4470017,15.8365288 13.6353431,15.7574558 13.7747994,15.6179958 C13.9128202,15.4771005 13.9890187,15.28732 13.9861442,15.0903514 L13.9861442,8.46535139 C13.9904575,8.25400653 13.904193,8.04985347 13.7474823,7.90609097 C13.5907716,7.76375653 13.3808658,7.69474611 13.1695247,7.71774958 L13.1694878,7.71775694 Z M13.25,16.9305556 C12.6404264,16.9305556 12.1458333,17.4251486 12.1458333,18.0347222 C12.1458333,18.6442958 12.6404264,19.1388889 13.25,19.1388889 C13.8595736,19.1388889 14.3541667,18.6442958 14.3541667,18.0347222 C14.3541667,17.4251486 13.8595736,16.9305556 13.25,16.9305556 Z" id="Shape"></path>
                    </g>
                </g>
            </g>
        </g>
    </g>
</svg>