<?xml version="1.0" encoding="UTF-8"?>
<svg width="17px" height="22px" viewBox="0 0 17 22" version="1.1" xmlns="http://www.w3.org/2000/svg" xmlns:xlink="http://www.w3.org/1999/xlink">
    <!-- Generator: Sketch 54.1 (76490) - https://sketchapp.com -->
    <title>User</title>
    <desc>Created with Sketch.</desc>
    <g id="Redesign" stroke="none" stroke-width="1" fill="none" fill-rule="evenodd">
        <g id="Home-Monitor:-Normal" transform="translate(-351.000000, -83.000000)" fill="#AFAFAF">
            <g id="User" transform="translate(351.000000, 83.000000)">
                <path d="M8.5,1.63762908 C9.81911022,1.63762908 10.8886867,2.70700086 10.8886867,4.02631579 C10.8886867,5.34563071 9.81911022,6.4150025 8.5,6.4150025 C7.18048037,6.4150025 6.11131329,5.34563071 6.11131329,4.02631579 C6.11131329,2.70700086 7.18048037,1.63762908 8.5,1.63762908 Z M8.5,8.05263158 C10.7200109,8.05263158 12.5263158,6.24632671 12.5263158,4.02631579 C12.5263158,1.80610017 10.7200109,0 8.5,0 C6.27978438,0 4.47368421,1.80610017 4.47368421,4.02631579 C4.47368421,6.24632671 6.27978438,8.05263158 8.5,8.05263158 L8.5,8.05263158 Z" id="Fill-1"></path>
                <path d="M12.5857688,13.2318809 L10.7951151,20.7933563 L6.26630795,20.7933563 L4.41423082,12.9736842 L2.42105244,12.9736842 L4.30125115,20.9119793 C4.44555924,21.5210285 5.31708142,21.9736842 6.34549239,21.9736842 L10.7159307,21.9736842 C11.7443416,21.9736842 12.6161105,21.5210285 12.7601719,20.9119793 L14.5789472,13.2318809 L12.5857688,13.2318809" id="Fill-2"></path>
                <path d="M14.6331228,9.84210526 L2.36687716,9.84210526 C1.5176207,9.84210526 0.797922184,10.4558962 0.67875331,11.2814841 L0,17 L1.64595641,17 L2.30148706,11.4420817 L14.6985129,11.4420817 L15.3540436,17 L17,17 L16.3212467,11.2814841 C16.2020778,10.4558962 15.4823793,9.84210526 14.6331228,9.84210526 Z" id="Fill-3"></path>
            </g>
        </g>
    </g>
</svg>