<?xml version="1.0" encoding="UTF-8"?>
<svg width="16px" height="29px" viewBox="0 0 16 29" version="1.1" xmlns="http://www.w3.org/2000/svg" xmlns:xlink="http://www.w3.org/1999/xlink">
    <!-- Generator: Sketch 54.1 (76490) - https://sketchapp.com -->
    <title>Fill 1</title>
    <desc>Created with Sketch.</desc>
    <g id="Redesign" stroke="none" stroke-width="1" fill="none" fill-rule="evenodd">
        <g id="Home-Monitor:-Warning---WV" transform="translate(-44.000000, -323.000000)" fill="#01C1D6">
            <path d="M52.9598473,349.091896 C49.6021075,349.091896 46.2029522,345.925876 46.2029522,339.874437 C46.2029522,334.461153 48.0933055,330.332658 50.4163186,327.929926 C49.8642588,332.43449 51.8215819,334.635581 53.7251529,336.776225 C55.4416932,338.706306 57.0628458,340.529321 57.0628458,344.330821 C57.0628458,347.311037 54.97665,349.091896 52.9598473,349.091896 Z M55.362387,335.283774 C53.2281669,332.883943 51.5424678,330.988435 53.1858702,325.551508 L53.9571237,323 L51.6222147,324.236831 C46.3567183,327.025668 44,334.100253 44,339.874437 C44,347.389998 48.5074605,351.32243 52.9598473,351.32243 C54.791602,351.32243 56.4510859,350.515646 57.6325292,349.050185 C58.6705603,347.763166 59.265798,346.042979 59.265798,344.330821 C59.265798,339.673019 57.1919388,337.340996 55.362387,335.283774 L55.362387,335.283774 Z" id="Fill-1"></path>
        </g>
    </g>
</svg>